<svg width="41" height="41" viewBox="0 0 41 41" fill="none" xmlns="http://www.w3.org/2000/svg">
<mask id="mask0_3_36279" style="mask-type:luminance" maskUnits="userSpaceOnUse" x="0" y="0" width="41" height="41">
<path d="M0.130859 4.70313C0.130859 2.49399 1.92172 0.703125 4.13086 0.703125H40.1309V40.7031H4.13086C1.92172 40.7031 0.130859 38.9123 0.130859 36.7031V4.70313Z" fill="white"/>
</mask>
<g mask="url(#mask0_3_36279)">
<rect x="0.130859" y="0.703125" width="40" height="40" fill="#007AB3"/>
</g>
<path fill-rule="evenodd" clip-rule="evenodd" d="M12.2309 13.7031C11.6239 13.7031 11.1309 14.1951 11.1309 14.8031C11.1309 15.4101 11.6239 15.9031 12.2309 15.9031C12.8379 15.9031 13.3309 15.4101 13.3309 14.8031C13.3309 14.1951 12.8379 13.7031 12.2309 13.7031ZM11.1309 20.2111C11.1309 19.6031 11.6239 19.1111 12.2309 19.1111C12.8379 19.1111 13.3309 19.6031 13.3309 20.2111C13.3309 20.8181 12.8379 21.3111 12.2309 21.3111C11.6239 21.3111 11.1309 20.8181 11.1309 20.2111ZM13.3309 25.6111C13.3309 25.0031 12.8379 24.5111 12.2309 24.5111C11.6239 24.5111 11.1309 25.0031 11.1309 25.6111C11.1309 26.2181 11.6239 26.7111 12.2309 26.7111C12.8379 26.7111 13.3309 26.2181 13.3309 25.6111ZM28.2309 15.8041H17.2309C16.6789 15.8041 16.2309 15.3561 16.2309 14.8041C16.2309 14.2521 16.6789 13.8041 17.2309 13.8041H28.2309C28.7839 13.8041 29.2309 14.2521 29.2309 14.8041C29.2309 15.3561 28.7839 15.8041 28.2309 15.8041ZM28.2309 19.2111H17.2309C16.6789 19.2111 16.2309 19.6581 16.2309 20.2111C16.2309 20.7631 16.6789 21.2111 17.2309 21.2111H28.2309C28.7839 21.2111 29.2309 20.7631 29.2309 20.2111C29.2309 19.6581 28.7839 19.2111 28.2309 19.2111ZM17.2309 24.6111H28.2309C28.7839 24.6111 29.2309 25.0591 29.2309 25.6111C29.2309 26.1631 28.7839 26.6111 28.2309 26.6111H17.2309C16.6789 26.6111 16.2309 26.1631 16.2309 25.6111C16.2309 25.0591 16.6789 24.6111 17.2309 24.6111Z" fill="white"/>
</svg>
