<svg width="45" height="49" viewBox="0 0 45 49" fill="none" xmlns="http://www.w3.org/2000/svg">
<g filter="url(#filter0_ddd_3_36280)">
<path d="M4.13086 7.70313C4.13086 5.49399 5.92172 3.70312 8.13086 3.70312H44.1309V43.7031H8.13086C5.92172 43.7031 4.13086 41.9123 4.13086 39.7031V7.70313Z" fill="white"/>
<path fill-rule="evenodd" clip-rule="evenodd" d="M24.8502 20.4221L28.8502 16.4221C29.2242 16.0351 29.2242 15.4201 28.8502 15.0331C28.4662 14.6361 27.8332 14.6251 27.4362 15.0081L24.1432 18.3011L20.8502 15.0081C20.8476 15.0055 20.8449 15.0027 20.8422 14.9999C20.8369 14.9944 20.8316 14.9888 20.8262 14.9841C20.4282 14.6001 19.7952 14.6111 19.4122 15.0081C19.0282 15.4051 19.0382 16.0381 19.4362 16.4221L23.4362 20.4221C23.8272 20.8131 24.4592 20.8131 24.8502 20.4221ZM14.1309 23.7031C14.1309 23.1508 14.5786 22.7031 15.1309 22.7031H33.1309C33.6831 22.7031 34.1309 23.1508 34.1309 23.7031C34.1309 24.2554 33.6831 24.7031 33.1309 24.7031H15.1309C14.5786 24.7031 14.1309 24.2554 14.1309 23.7031ZM28.8502 30.9964L24.8502 26.9964C24.4592 26.6054 23.8272 26.6054 23.4362 26.9964L19.4362 30.9964C19.0382 31.3804 19.0282 32.0134 19.4122 32.4104C19.7952 32.8074 20.4282 32.8184 20.8262 32.4344C20.8316 32.4297 20.8369 32.4242 20.8422 32.4186L20.8502 32.4104L24.1432 29.1174L27.4362 32.4104C27.8332 32.7934 28.4662 32.7824 28.8502 32.3854C29.2242 31.9984 29.2242 31.3834 28.8502 30.9964Z" fill="#414141"/>
<mask id="mask0_3_36280" style="mask-type:luminance" maskUnits="userSpaceOnUse" x="14" y="14" width="21" height="19">
<path fill-rule="evenodd" clip-rule="evenodd" d="M24.8502 20.4221L28.8502 16.4221C29.2242 16.0351 29.2242 15.4201 28.8502 15.0331C28.4662 14.6361 27.8332 14.6251 27.4362 15.0081L24.1432 18.3011L20.8502 15.0081C20.8476 15.0055 20.8449 15.0027 20.8422 14.9999C20.8369 14.9944 20.8316 14.9888 20.8262 14.9841C20.4282 14.6001 19.7952 14.6111 19.4122 15.0081C19.0282 15.4051 19.0382 16.0381 19.4362 16.4221L23.4362 20.4221C23.8272 20.8131 24.4592 20.8131 24.8502 20.4221ZM14.1309 23.7031C14.1309 23.1508 14.5786 22.7031 15.1309 22.7031H33.1309C33.6831 22.7031 34.1309 23.1508 34.1309 23.7031C34.1309 24.2554 33.6831 24.7031 33.1309 24.7031H15.1309C14.5786 24.7031 14.1309 24.2554 14.1309 23.7031ZM28.8502 30.9964L24.8502 26.9964C24.4592 26.6054 23.8272 26.6054 23.4362 26.9964L19.4362 30.9964C19.0382 31.3804 19.0282 32.0134 19.4122 32.4104C19.7952 32.8074 20.4282 32.8184 20.8262 32.4344C20.8316 32.4297 20.8369 32.4242 20.8422 32.4186L20.8502 32.4104L24.1432 29.1174L27.4362 32.4104C27.8332 32.7934 28.4662 32.7824 28.8502 32.3854C29.2242 31.9984 29.2242 31.3834 28.8502 30.9964Z" fill="white"/>
</mask>
<g mask="url(#mask0_3_36280)">
<rect x="12.1309" y="11.7031" width="24" height="24" fill="#007AB3"/>
</g>
</g>
<defs>
<filter id="filter0_ddd_3_36280" x="0.130859" y="0.703125" width="48" height="48" filterUnits="userSpaceOnUse" color-interpolation-filters="sRGB">
<feFlood flood-opacity="0" result="BackgroundImageFix"/>
<feColorMatrix in="SourceAlpha" type="matrix" values="0 0 0 0 0 0 0 0 0 0 0 0 0 0 0 0 0 0 127 0" result="hardAlpha"/>
<feOffset dy="1"/>
<feGaussianBlur stdDeviation="2"/>
<feColorMatrix type="matrix" values="0 0 0 0 0 0 0 0 0 0 0 0 0 0 0 0 0 0 0.2 0"/>
<feBlend mode="normal" in2="BackgroundImageFix" result="effect1_dropShadow_3_36280"/>
<feColorMatrix in="SourceAlpha" type="matrix" values="0 0 0 0 0 0 0 0 0 0 0 0 0 0 0 0 0 0 127 0" result="hardAlpha"/>
<feMorphology radius="1" operator="erode" in="SourceAlpha" result="effect2_dropShadow_3_36280"/>
<feOffset dy="2"/>
<feGaussianBlur stdDeviation="2"/>
<feColorMatrix type="matrix" values="0 0 0 0 0 0 0 0 0 0 0 0 0 0 0 0 0 0 0.12 0"/>
<feBlend mode="normal" in2="effect1_dropShadow_3_36280" result="effect2_dropShadow_3_36280"/>
<feColorMatrix in="SourceAlpha" type="matrix" values="0 0 0 0 0 0 0 0 0 0 0 0 0 0 0 0 0 0 127 0" result="hardAlpha"/>
<feOffset dy="1"/>
<feGaussianBlur stdDeviation="2"/>
<feColorMatrix type="matrix" values="0 0 0 0 0 0 0 0 0 0 0 0 0 0 0 0 0 0 0.14 0"/>
<feBlend mode="normal" in2="effect2_dropShadow_3_36280" result="effect3_dropShadow_3_36280"/>
<feBlend mode="normal" in="SourceGraphic" in2="effect3_dropShadow_3_36280" result="shape"/>
</filter>
</defs>
</svg>
