<?xml version="1.0" encoding="UTF-8"?><svg id="Livello_1" xmlns="http://www.w3.org/2000/svg" viewBox="0 0 56 56"><defs><style>.cls-1{fill:#f5f5f5;}.cls-2{fill:#ff4b55;}.cls-3{fill:#41479b;}</style></defs><polygon class="cls-3" points="20.63 -.12 0 -.12 0 4.25 20.63 17.76 20.63 -.12"/><polygon class="cls-3" points="0 14.82 0 20.51 8.69 20.51 0 14.82"/><polygon class="cls-3" points="0 35.24 0 40.94 8.69 35.24 0 35.24"/><polygon class="cls-3" points="56 4.25 56 -.12 35.37 -.12 35.37 17.76 56 4.25"/><polygon class="cls-3" points="56 40.94 56 35.24 47.31 35.24 56 40.94"/><polygon class="cls-3" points="35.37 37.99 35.37 55.88 56 55.88 56 51.51 35.37 37.99"/><polygon class="cls-3" points="56 20.51 56 14.82 47.31 20.51 56 20.51"/><polygon class="cls-3" points="0 51.51 0 55.88 20.63 55.88 20.63 37.99 0 51.51"/><polygon class="cls-1" points="56 51.51 56 47.14 37.68 35.24 43.09 35.24 56 43.63 56 40.94 47.31 35.24 56 35.24 56 32.3 32.42 32.3 32.42 55.88 35.37 55.88 35.37 37.99 56 51.51"/><polygon class="cls-1" points="0 32.3 0 35.24 8.69 35.24 0 40.94 0 45.07 15.14 35.24 20.55 35.24 0 48.58 0 51.51 20.63 37.99 20.63 55.88 23.58 55.88 23.58 32.3 0 32.3"/><polygon class="cls-1" points="23.58 -.12 20.63 -.12 20.63 17.76 0 4.25 0 9.03 17.68 20.51 12.27 20.51 0 12.54 0 14.82 8.69 20.51 0 20.51 0 23.46 23.58 23.46 23.58 -.12"/><polygon class="cls-1" points="56 23.46 56 20.51 47.31 20.51 56 14.82 56 10.63 40.78 20.51 35.37 20.51 56 7.12 56 4.25 35.37 17.76 35.37 -.12 32.42 -.12 32.42 23.46 56 23.46"/><polygon class="cls-2" points="56 32.3 56 23.46 32.42 23.46 32.42 -.12 23.58 -.12 23.58 23.46 0 23.46 0 32.3 23.58 32.3 23.58 55.88 32.42 55.88 32.42 32.3 56 32.3"/><polygon class="cls-2" points="15.14 35.24 0 45.07 0 48.58 20.55 35.24 15.14 35.24"/><polygon class="cls-2" points="37.68 35.24 56 47.14 56 43.63 43.09 35.24 37.68 35.24"/><polygon class="cls-2" points="17.68 20.51 0 9.03 0 12.54 12.27 20.51 17.68 20.51"/><polygon class="cls-2" points="40.78 20.51 56 10.63 56 7.12 35.37 20.51 40.78 20.51"/></svg>