<svg width="20" height="20" viewBox="0 0 20 20" fill="none" xmlns="http://www.w3.org/2000/svg">
<path fill-rule="evenodd" clip-rule="evenodd" d="M5.1446 1.66602H15.2895C16.29 1.66602 17.1011 2.47709 17.1011 3.47761V16.5211C17.1011 17.5216 16.29 18.3327 15.2895 18.3327H5.1446C4.14409 18.3327 3.33301 17.5216 3.33301 16.5211V3.47761C3.33301 2.47709 4.14409 1.66602 5.1446 1.66602ZM5.1446 2.75297C4.7444 2.75297 4.41996 3.0774 4.41996 3.47761V16.5211C4.41996 16.9213 4.7444 17.2457 5.1446 17.2457H15.2895C15.6897 17.2457 16.0142 16.9213 16.0142 16.5211V3.47761C16.0142 3.0774 15.6897 2.75297 15.2895 2.75297H5.1446ZM6.0504 5.65152C6.0504 5.35137 6.29372 5.10805 6.59388 5.10805H13.8403C14.1404 5.10805 14.3837 5.35137 14.3837 5.65152C14.3837 5.95168 14.1404 6.195 13.8403 6.195H6.59388C6.29372 6.195 6.0504 5.95168 6.0504 5.65152ZM6.59388 8.0066C6.29372 8.0066 6.0504 8.24992 6.0504 8.55007C6.0504 8.85023 6.29372 9.09355 6.59388 9.09355H13.8403C14.1404 9.09355 14.3837 8.85023 14.3837 8.55007C14.3837 8.24992 14.1404 8.0066 13.8403 8.0066H6.59388ZM6.0504 11.4486C6.0504 11.1485 6.29372 10.9051 6.59388 10.9051H13.8403C14.1404 10.9051 14.3837 11.1485 14.3837 11.4486C14.3837 11.7488 14.1404 11.9921 13.8403 11.9921H6.59388C6.29372 11.9921 6.0504 11.7488 6.0504 11.4486ZM6.59388 13.8037C6.29372 13.8037 6.0504 14.047 6.0504 14.3472C6.0504 14.6473 6.29372 14.8907 6.59388 14.8907H13.8403C14.1404 14.8907 14.3837 14.6473 14.3837 14.3472C14.3837 14.047 14.1404 13.8037 13.8403 13.8037H6.59388Z" fill="#007AB3"/>
</svg>
