<svg width="28" height="29" viewBox="0 0 28 29" fill="none" xmlns="http://www.w3.org/2000/svg">
<circle cx="14" cy="14.5146" r="14" fill="#D8D8D8"/>
<mask id="mask0_2507_409397" style="mask-type:luminance" maskUnits="userSpaceOnUse" x="0" y="0" width="28" height="29">
<circle cx="14" cy="14.5146" r="14" fill="white"/>
</mask>
<g mask="url(#mask0_2507_409397)">
<rect y="0.514648" width="28" height="28" fill="#007AB3"/>
</g>
<path fill-rule="evenodd" clip-rule="evenodd" d="M22.0889 15.1145L18.7555 18.4478C18.433 18.7595 17.9205 18.7595 17.598 18.4478C17.2672 18.1278 17.258 17.6003 17.5772 17.2695L20.3214 14.5253L17.5772 11.7811C17.575 11.7789 17.5727 11.7767 17.5704 11.7745C17.5657 11.77 17.5611 11.7656 17.5572 11.7611C17.2372 11.4295 17.2464 10.902 17.5772 10.5828C17.908 10.2628 18.4355 10.2711 18.7555 10.6028L22.0889 13.9361C22.4147 14.262 22.4147 14.7886 22.0889 15.1145ZM13.9999 6.18164C14.4602 6.18164 14.8333 6.55474 14.8333 7.01497L14.8333 22.015C14.8333 22.4752 14.4602 22.8483 13.9999 22.8483C13.5397 22.8483 13.1666 22.4752 13.1666 22.015L13.1666 7.01497C13.1666 6.55474 13.5397 6.18164 13.9999 6.18164ZM9.23407 18.4478L5.90073 15.1145C5.5749 14.7886 5.5749 14.262 5.90073 13.9361L9.23407 10.6028C9.55407 10.2711 10.0816 10.2628 10.4124 10.5828C10.7432 10.902 10.7524 11.4295 10.4324 11.7611C10.4285 11.7656 10.4239 11.77 10.4193 11.7745L10.4124 11.7811L7.66823 14.5253L10.4124 17.2695C10.7316 17.6003 10.7224 18.1278 10.3916 18.4478C10.0691 18.7595 9.55657 18.7595 9.23407 18.4478Z" fill="#414141"/>
<mask id="mask1_2507_409397" style="mask-type:alpha" maskUnits="userSpaceOnUse" x="5" y="6" width="18" height="17">
<path fill-rule="evenodd" clip-rule="evenodd" d="M22.0889 15.1145L18.7555 18.4478C18.433 18.7595 17.9205 18.7595 17.598 18.4478C17.2672 18.1278 17.258 17.6003 17.5772 17.2695L20.3214 14.5253L17.5772 11.7811C17.575 11.7789 17.5727 11.7767 17.5704 11.7745C17.5657 11.77 17.5611 11.7656 17.5572 11.7611C17.2372 11.4295 17.2464 10.902 17.5772 10.5828C17.908 10.2628 18.4355 10.2711 18.7555 10.6028L22.0889 13.9361C22.4147 14.262 22.4147 14.7886 22.0889 15.1145ZM13.9999 6.18164C14.4602 6.18164 14.8333 6.55474 14.8333 7.01497L14.8333 22.015C14.8333 22.4752 14.4602 22.8483 13.9999 22.8483C13.5397 22.8483 13.1666 22.4752 13.1666 22.015L13.1666 7.01497C13.1666 6.55474 13.5397 6.18164 13.9999 6.18164ZM9.23407 18.4478L5.90073 15.1145C5.5749 14.7886 5.5749 14.262 5.90073 13.9361L9.23407 10.6028C9.55407 10.2711 10.0816 10.2628 10.4124 10.5828C10.7432 10.902 10.7524 11.4295 10.4324 11.7611C10.4285 11.7656 10.4239 11.77 10.4193 11.7745L10.4124 11.7811L7.66823 14.5253L10.4124 17.2695C10.7316 17.6003 10.7224 18.1278 10.3916 18.4478C10.0691 18.7595 9.55657 18.7595 9.23407 18.4478Z" fill="white"/>
</mask>
<g mask="url(#mask1_2507_409397)">
<rect x="24" y="4.51465" width="20" height="20" transform="rotate(90 24 4.51465)" fill="white"/>
</g>
</svg>
