<?xml version="1.0" encoding="UTF-8"?><svg id="Livello_1" xmlns="http://www.w3.org/2000/svg" viewBox="0 0 56 56"><defs><style>.cls-1{fill:#f5f5f5;}.cls-2{fill:#ff4b55;}</style></defs><rect class="cls-2" y=".03" width="56" height="56"/><path class="cls-1" d="m39.85,23.72h-7.54v-7.54c0-.6-.48-1.08-1.08-1.08h-6.46c-.6,0-1.08.48-1.08,1.08v7.54h-7.54c-.6,0-1.08.48-1.08,1.08v6.46c0,.6.48,1.08,1.08,1.08h7.54v7.54c0,.6.48,1.08,1.08,1.08h6.46c.6,0,1.08-.48,1.08-1.08v-7.54h7.54c.6,0,1.08-.48,1.08-1.08v-6.46c0-.6-.48-1.08-1.08-1.08Z"/></svg>