<svg width="25" height="25" viewBox="0 0 25 25" fill="none" xmlns="http://www.w3.org/2000/svg">
<path fill-rule="evenodd" clip-rule="evenodd" d="M15.838 4.16433L13.545 6.45833H22.131C22.684 6.45833 23.131 6.90633 23.131 7.45833C23.131 8.01033 22.684 8.45833 22.131 8.45833H13.545L15.838 10.7533C16.212 11.1413 16.212 11.7553 15.838 12.1433C15.454 12.5403 14.821 12.5513 14.424 12.1673L10.424 8.16733C10.331 8.07333 10.257 7.96233 10.207 7.84033C10.052 7.46633 10.138 7.03633 10.424 6.75033L14.424 2.75033C14.4267 2.74767 14.4293 2.74489 14.432 2.74211C14.4373 2.73655 14.4427 2.731 14.448 2.72633C14.846 2.34233 15.479 2.35333 15.862 2.75033C16.246 3.14733 16.235 3.78033 15.838 4.16433ZM10.4134 16.1539L8.11942 13.8609V22.4469C8.11942 22.9999 7.67142 23.4469 7.11942 23.4469C6.56742 23.4469 6.11942 22.9999 6.11942 22.4469V13.8609L3.82442 16.1539C3.43642 16.5279 2.82242 16.5279 2.43442 16.1539C2.03742 15.7699 2.02642 15.1369 2.41042 14.7399L6.41042 10.7399C6.50442 10.6469 6.61542 10.5729 6.73742 10.5229C7.11142 10.3679 7.54142 10.4539 7.82742 10.7399L11.8274 14.7399C11.8301 14.7426 11.8329 14.7453 11.8356 14.7479C11.8412 14.7533 11.8468 14.7586 11.8514 14.7639C12.2354 15.1619 12.2244 15.7949 11.8274 16.1779C11.4304 16.5619 10.7974 16.5509 10.4134 16.1539Z" fill="#414141"/>
<mask id="mask0_1856_224335" style="mask-type:luminance" maskUnits="userSpaceOnUse" x="2" y="2" width="22" height="22">
<path fill-rule="evenodd" clip-rule="evenodd" d="M15.838 4.16433L13.545 6.45833H22.131C22.684 6.45833 23.131 6.90633 23.131 7.45833C23.131 8.01033 22.684 8.45833 22.131 8.45833H13.545L15.838 10.7533C16.212 11.1413 16.212 11.7553 15.838 12.1433C15.454 12.5403 14.821 12.5513 14.424 12.1673L10.424 8.16733C10.331 8.07333 10.257 7.96233 10.207 7.84033C10.052 7.46633 10.138 7.03633 10.424 6.75033L14.424 2.75033C14.4267 2.74767 14.4293 2.74489 14.432 2.74211C14.4373 2.73655 14.4427 2.731 14.448 2.72633C14.846 2.34233 15.479 2.35333 15.862 2.75033C16.246 3.14733 16.235 3.78033 15.838 4.16433ZM10.4134 16.1539L8.11942 13.8609V22.4469C8.11942 22.9999 7.67142 23.4469 7.11942 23.4469C6.56742 23.4469 6.11942 22.9999 6.11942 22.4469V13.8609L3.82442 16.1539C3.43642 16.5279 2.82242 16.5279 2.43442 16.1539C2.03742 15.7699 2.02642 15.1369 2.41042 14.7399L6.41042 10.7399C6.50442 10.6469 6.61542 10.5729 6.73742 10.5229C7.11142 10.3679 7.54142 10.4539 7.82742 10.7399L11.8274 14.7399C11.8301 14.7426 11.8329 14.7453 11.8356 14.7479C11.8412 14.7533 11.8468 14.7586 11.8514 14.7639C12.2354 15.1619 12.2244 15.7949 11.8274 16.1779C11.4304 16.5619 10.7974 16.5509 10.4134 16.1539Z" fill="white"/>
</mask>
<g mask="url(#mask0_1856_224335)">
<rect x="0.130859" y="0.445312" width="24" height="24" fill="#007AB3"/>
</g>
</svg>
