<svg width="21" height="21" viewBox="0 0 21 21" fill="none" xmlns="http://www.w3.org/2000/svg">
<mask id="mask0_255_31415" style="mask-type:luminance" maskUnits="userSpaceOnUse" x="2" y="3" width="17" height="16">
<path fill-rule="evenodd" clip-rule="evenodd" d="M7.53124 14.308L6.45374 15.3855V4.0638C6.45374 3.60297 6.0804 3.23047 5.6204 3.23047C5.1604 3.23047 4.78707 3.60297 4.78707 4.0638V15.3855L3.70957 14.308C3.37874 13.988 2.85124 13.9971 2.53124 14.328C2.21957 14.6513 2.21957 15.163 2.53124 15.4863L5.03124 17.9863C5.10874 18.0638 5.20124 18.1255 5.3029 18.168C5.50624 18.253 5.73624 18.253 5.93957 18.168C6.04124 18.1255 6.13374 18.0638 6.21124 17.9863L8.71124 15.4863C9.03124 15.1555 9.02207 14.628 8.69124 14.308C8.3679 13.9955 7.85624 13.9955 7.5329 14.308H7.53124ZM11.4537 7.23047H13.1204C13.4879 7.23047 13.7871 6.93214 13.7879 6.5638C13.7879 6.19547 13.4887 5.89714 13.1212 5.89714H13.1204H11.4537C11.0854 5.8963 10.7871 6.19547 10.7871 6.5638C10.7862 6.9313 11.0854 7.22964 11.4537 7.23047ZM14.7871 10.008H11.4537C11.0854 10.008 10.7871 9.7088 10.7871 9.3413C10.7871 8.97297 11.0854 8.67464 11.4537 8.67464H14.7871C15.1546 8.67464 15.4537 8.97297 15.4537 9.3413C15.4537 9.7088 15.1546 10.008 14.7871 10.008ZM11.4537 12.7855H16.4537C16.8212 12.7855 17.1204 12.4863 17.1204 12.1188C17.1204 11.7505 16.8212 11.4521 16.4537 11.4521H11.4537C11.0854 11.4521 10.7871 11.7505 10.7871 12.1188C10.7871 12.4863 11.0854 12.7855 11.4537 12.7855ZM11.4537 14.2296H18.1204C18.4879 14.2296 18.7871 14.5288 18.7871 14.8971C18.7871 15.2646 18.4879 15.5638 18.1204 15.5638H11.4537C11.0854 15.5638 10.7871 15.2646 10.7871 14.8971C10.7871 14.5288 11.0854 14.2296 11.4537 14.2296Z" fill="white"/>
</mask>
<g mask="url(#mask0_255_31415)">
<rect x="0.630859" y="0.730469" width="20" height="20" fill="#3C3C3C"/>
</g>
</svg>
