<?xml version="1.0" encoding="UTF-8"?><svg id="Livello_1" xmlns="http://www.w3.org/2000/svg" viewBox="0 0 56 56"><defs><style>.cls-1{fill:#f5f5f5;}.cls-2{fill:#ff4b55;}.cls-3{fill:#41479b;}</style></defs><rect class="cls-1" y="-.07" width="55.95" height="55.95"/><rect class="cls-2" y="-.07" width="56" height="4.3"/><rect class="cls-2" y="17.14" width="56" height="4.3"/><rect class="cls-2" y="8.54" width="56" height="4.3"/><rect class="cls-2" y="25.75" width="56" height="4.3"/><rect class="cls-2" y="42.96" width="56" height="4.3"/><rect class="cls-2" y="51.57" width="56" height="4.3"/><rect class="cls-2" y="34.36" width="56" height="4.3"/><rect class="cls-3" y="-.07" width="30.13" height="30.13"/><path class="cls-1" d="m3.85,2.18l.23.7h.73c.09,0,.13.13.06.18l-.59.44.22.7c.03.09-.07.17-.15.11l-.6-.43-.6.43c-.08.06-.18-.02-.15-.11l.22-.7-.59-.44c-.08-.06-.04-.18.06-.18h.73s.23-.7.23-.7c.03-.09.16-.09.19,0Z"/><path class="cls-1" d="m3.85,7.99l.23.7h.73c.09,0,.13.13.06.18l-.59.44.22.7c.03.09-.07.17-.15.11l-.6-.43-.6.43c-.08.06-.18-.02-.15-.11l.22-.7-.59-.44c-.08-.06-.04-.18.06-.18h.73s.23-.7.23-.7c.03-.09.16-.09.19,0Z"/><path class="cls-1" d="m3.85,14.42l.23.7h.73c.09,0,.13.13.06.18l-.59.44.22.7c.03.09-.07.17-.15.11l-.6-.43-.6.43c-.08.06-.18-.02-.15-.11l.22-.7-.59-.44c-.08-.06-.04-.18.06-.18h.73s.23-.7.23-.7c.03-.09.16-.09.19,0Z"/><path class="cls-1" d="m3.85,20.34l.23.7h.73c.09,0,.13.13.06.18l-.59.44.22.7c.03.09-.07.17-.15.11l-.6-.43-.6.43c-.08.06-.18-.02-.15-.11l.22-.7-.59-.44c-.08-.06-.04-.18.06-.18h.73s.23-.7.23-.7c.03-.09.16-.09.19,0Z"/><path class="cls-1" d="m3.85,25.73l.23.7h.73c.09,0,.13.13.06.18l-.59.44.22.7c.03.09-.07.17-.15.11l-.6-.43-.6.43c-.08.06-.18-.02-.15-.11l.22-.7-.59-.44c-.08-.06-.04-.18.06-.18h.73s.23-.7.23-.7c.03-.09.16-.09.19,0Z"/><path class="cls-1" d="m6.68,4.93l.23.7h.73c.09,0,.13.13.06.18l-.59.44.22.7c.03.09-.07.17-.15.11l-.6-.43-.6.43c-.08.06-.18-.02-.15-.11l.22-.7-.59-.44c-.08-.06-.04-.18.06-.18h.73s.23-.7.23-.7c.03-.09.16-.09.19,0Z"/><path class="cls-1" d="m6.68,11.37l.23.7h.73c.09,0,.13.13.06.18l-.59.44.22.7c.03.09-.07.17-.15.11l-.6-.43-.6.43c-.08.06-.18-.02-.15-.11l.22-.7-.59-.44c-.08-.06-.04-.18.06-.18h.73s.23-.7.23-.7c.03-.09.16-.09.19,0Z"/><path class="cls-1" d="m6.68,17.49l.23.7h.73c.09,0,.13.13.06.18l-.59.44.22.7c.03.09-.07.17-.15.11l-.6-.43-.6.43c-.08.06-.18-.02-.15-.11l.22-.7-.59-.44c-.08-.06-.04-.18.06-.18h.73s.23-.7.23-.7c.03-.09.16-.09.19,0Z"/><path class="cls-1" d="m6.68,22.98l.23.7h.73c.09,0,.13.13.06.18l-.59.44.22.7c.03.09-.07.17-.15.11l-.6-.43-.6.43c-.08.06-.18-.02-.15-.11l.22-.7-.59-.44c-.08-.06-.04-.18.06-.18h.73s.23-.7.23-.7c.03-.09.16-.09.19,0Z"/><path class="cls-1" d="m9.5,2.18l.23.7h.73c.09,0,.13.13.06.18l-.59.44.22.7c.03.09-.07.17-.15.11l-.6-.43-.6.43c-.08.06-.18-.02-.15-.11l.22-.7-.59-.44c-.08-.06-.04-.18.06-.18h.73s.23-.7.23-.7c.03-.09.16-.09.19,0Z"/><path class="cls-1" d="m9.5,7.99l.23.7h.73c.09,0,.13.13.06.18l-.59.44.22.7c.03.09-.07.17-.15.11l-.6-.43-.6.43c-.08.06-.18-.02-.15-.11l.22-.7-.59-.44c-.08-.06-.04-.18.06-.18h.73s.23-.7.23-.7c.03-.09.16-.09.19,0Z"/><path class="cls-1" d="m9.5,14.42l.23.7h.73c.09,0,.13.13.06.18l-.59.44.22.7c.03.09-.07.17-.15.11l-.6-.43-.6.43c-.08.06-.18-.02-.15-.11l.22-.7-.59-.44c-.08-.06-.04-.18.06-.18h.73s.23-.7.23-.7c.03-.09.16-.09.19,0Z"/><path class="cls-1" d="m9.5,20.34l.23.7h.73c.09,0,.13.13.06.18l-.59.44.22.7c.03.09-.07.17-.15.11l-.6-.43-.6.43c-.08.06-.18-.02-.15-.11l.22-.7-.59-.44c-.08-.06-.04-.18.06-.18h.73s.23-.7.23-.7c.03-.09.16-.09.19,0Z"/><path class="cls-1" d="m9.5,25.73l.23.7h.73c.09,0,.13.13.06.18l-.59.44.22.7c.03.09-.07.17-.15.11l-.6-.43-.6.43c-.08.06-.18-.02-.15-.11l.22-.7-.59-.44c-.08-.06-.04-.18.06-.18h.73s.23-.7.23-.7c.03-.09.16-.09.19,0Z"/><path class="cls-1" d="m12.33,4.93l.23.7h.73c.09,0,.13.13.06.18l-.59.44.22.7c.03.09-.07.17-.15.11l-.6-.43-.6.43c-.08.06-.18-.02-.15-.11l.22-.7-.59-.44c-.08-.06-.04-.18.06-.18h.73s.23-.7.23-.7c.03-.09.16-.09.19,0Z"/><path class="cls-1" d="m12.33,11.37l.23.7h.73c.09,0,.13.13.06.18l-.59.44.22.7c.03.09-.07.17-.15.11l-.6-.43-.6.43c-.08.06-.18-.02-.15-.11l.22-.7-.59-.44c-.08-.06-.04-.18.06-.18h.73s.23-.7.23-.7c.03-.09.16-.09.19,0Z"/><path class="cls-1" d="m12.33,17.49l.23.7h.73c.09,0,.13.13.06.18l-.59.44.22.7c.03.09-.07.17-.15.11l-.6-.43-.6.43c-.08.06-.18-.02-.15-.11l.22-.7-.59-.44c-.08-.06-.04-.18.06-.18h.73s.23-.7.23-.7c.03-.09.16-.09.19,0Z"/><path class="cls-1" d="m12.33,22.98l.23.7h.73c.09,0,.13.13.06.18l-.59.44.22.7c.03.09-.07.17-.15.11l-.6-.43-.6.43c-.08.06-.18-.02-.15-.11l.22-.7-.59-.44c-.08-.06-.04-.18.06-.18h.73s.23-.7.23-.7c.03-.09.16-.09.19,0Z"/><path class="cls-1" d="m15.16,2.18l.23.7h.73c.09,0,.13.13.06.18l-.59.44.22.7c.03.09-.07.17-.15.11l-.6-.43-.6.43c-.08.06-.18-.02-.15-.11l.22-.7-.59-.44c-.08-.06-.04-.18.06-.18h.73s.23-.7.23-.7c.03-.09.16-.09.19,0Z"/><path class="cls-1" d="m15.16,7.99l.23.7h.73c.09,0,.13.13.06.18l-.59.44.22.7c.03.09-.07.17-.15.11l-.6-.43-.6.43c-.08.06-.18-.02-.15-.11l.22-.7-.59-.44c-.08-.06-.04-.18.06-.18h.73s.23-.7.23-.7c.03-.09.16-.09.19,0Z"/><path class="cls-1" d="m15.16,14.42l.23.7h.73c.09,0,.13.13.06.18l-.59.44.22.7c.03.09-.07.17-.15.11l-.6-.43-.6.43c-.08.06-.18-.02-.15-.11l.22-.7-.59-.44c-.08-.06-.04-.18.06-.18h.73s.23-.7.23-.7c.03-.09.16-.09.19,0Z"/><path class="cls-1" d="m15.16,20.34l.23.7h.73c.09,0,.13.13.06.18l-.59.44.22.7c.03.09-.07.17-.15.11l-.6-.43-.6.43c-.08.06-.18-.02-.15-.11l.22-.7-.59-.44c-.08-.06-.04-.18.06-.18h.73s.23-.7.23-.7c.03-.09.16-.09.19,0Z"/><path class="cls-1" d="m15.16,25.73l.23.7h.73c.09,0,.13.13.06.18l-.59.44.22.7c.03.09-.07.17-.15.11l-.6-.43-.6.43c-.08.06-.18-.02-.15-.11l.22-.7-.59-.44c-.08-.06-.04-.18.06-.18h.73s.23-.7.23-.7c.03-.09.16-.09.19,0Z"/><path class="cls-1" d="m17.98,4.93l.23.7h.73c.09,0,.13.13.06.18l-.59.44.22.7c.03.09-.07.17-.15.11l-.6-.43-.6.43c-.08.06-.18-.02-.15-.11l.22-.7-.59-.44c-.08-.06-.04-.18.06-.18h.73s.23-.7.23-.7c.03-.09.16-.09.19,0Z"/><path class="cls-1" d="m17.98,11.37l.23.7h.73c.09,0,.13.13.06.18l-.59.44.22.7c.03.09-.07.17-.15.11l-.6-.43-.6.43c-.08.06-.18-.02-.15-.11l.22-.7-.59-.44c-.08-.06-.04-.18.06-.18h.73s.23-.7.23-.7c.03-.09.16-.09.19,0Z"/><path class="cls-1" d="m17.98,17.49l.23.7h.73c.09,0,.13.13.06.18l-.59.44.22.7c.03.09-.07.17-.15.11l-.6-.43-.6.43c-.08.06-.18-.02-.15-.11l.22-.7-.59-.44c-.08-.06-.04-.18.06-.18h.73s.23-.7.23-.7c.03-.09.16-.09.19,0Z"/><path class="cls-1" d="m17.98,22.98l.23.7h.73c.09,0,.13.13.06.18l-.59.44.22.7c.03.09-.07.17-.15.11l-.6-.43-.6.43c-.08.06-.18-.02-.15-.11l.22-.7-.59-.44c-.08-.06-.04-.18.06-.18h.73s.23-.7.23-.7c.03-.09.16-.09.19,0Z"/><path class="cls-1" d="m20.81,2.18l.23.7h.73c.09,0,.13.13.06.18l-.59.44.22.7c.03.09-.07.17-.15.11l-.6-.43-.6.43c-.08.06-.18-.02-.15-.11l.22-.7-.59-.44c-.08-.06-.04-.18.06-.18h.73s.23-.7.23-.7c.03-.09.16-.09.19,0Z"/><path class="cls-1" d="m20.81,7.99l.23.7h.73c.09,0,.13.13.06.18l-.59.44.22.7c.03.09-.07.17-.15.11l-.6-.43-.6.43c-.08.06-.18-.02-.15-.11l.22-.7-.59-.44c-.08-.06-.04-.18.06-.18h.73s.23-.7.23-.7c.03-.09.16-.09.19,0Z"/><path class="cls-1" d="m20.81,14.42l.23.7h.73c.09,0,.13.13.06.18l-.59.44.22.7c.03.09-.07.17-.15.11l-.6-.43-.6.43c-.08.06-.18-.02-.15-.11l.22-.7-.59-.44c-.08-.06-.04-.18.06-.18h.73s.23-.7.23-.7c.03-.09.16-.09.19,0Z"/><path class="cls-1" d="m20.81,20.34l.23.7h.73c.09,0,.13.13.06.18l-.59.44.22.7c.03.09-.07.17-.15.11l-.6-.43-.6.43c-.08.06-.18-.02-.15-.11l.22-.7-.59-.44c-.08-.06-.04-.18.06-.18h.73s.23-.7.23-.7c.03-.09.16-.09.19,0Z"/><path class="cls-1" d="m20.81,25.73l.23.7h.73c.09,0,.13.13.06.18l-.59.44.22.7c.03.09-.07.17-.15.11l-.6-.43-.6.43c-.08.06-.18-.02-.15-.11l.22-.7-.59-.44c-.08-.06-.04-.18.06-.18h.73s.23-.7.23-.7c.03-.09.16-.09.19,0Z"/><path class="cls-1" d="m23.64,4.93l.23.7h.73c.09,0,.13.13.06.18l-.59.44.22.7c.03.09-.07.17-.15.11l-.6-.43-.6.43c-.08.06-.18-.02-.15-.11l.22-.7-.59-.44c-.08-.06-.04-.18.06-.18h.73s.23-.7.23-.7c.03-.09.16-.09.19,0Z"/><path class="cls-1" d="m23.64,11.37l.23.7h.73c.09,0,.13.13.06.18l-.59.44.22.7c.03.09-.07.17-.15.11l-.6-.43-.6.43c-.08.06-.18-.02-.15-.11l.22-.7-.59-.44c-.08-.06-.04-.18.06-.18h.73s.23-.7.23-.7c.03-.09.16-.09.19,0Z"/><path class="cls-1" d="m23.64,17.49l.23.7h.73c.09,0,.13.13.06.18l-.59.44.22.7c.03.09-.07.17-.15.11l-.6-.43-.6.43c-.08.06-.18-.02-.15-.11l.22-.7-.59-.44c-.08-.06-.04-.18.06-.18h.73s.23-.7.23-.7c.03-.09.16-.09.19,0Z"/><path class="cls-1" d="m23.64,22.98l.23.7h.73c.09,0,.13.13.06.18l-.59.44.22.7c.03.09-.07.17-.15.11l-.6-.43-.6.43c-.08.06-.18-.02-.15-.11l.22-.7-.59-.44c-.08-.06-.04-.18.06-.18h.73s.23-.7.23-.7c.03-.09.16-.09.19,0Z"/><path class="cls-1" d="m26.46,2.18l.23.7h.73c.09,0,.13.13.06.18l-.59.44.22.7c.03.09-.07.17-.15.11l-.6-.43-.6.43c-.08.06-.18-.02-.15-.11l.22-.7-.59-.44c-.08-.06-.04-.18.06-.18h.73s.23-.7.23-.7c.03-.09.16-.09.19,0Z"/><path class="cls-1" d="m26.46,7.99l.23.7h.73c.09,0,.13.13.06.18l-.59.44.22.7c.03.09-.07.17-.15.11l-.6-.43-.6.43c-.08.06-.18-.02-.15-.11l.22-.7-.59-.44c-.08-.06-.04-.18.06-.18h.73s.23-.7.23-.7c.03-.09.16-.09.19,0Z"/><path class="cls-1" d="m26.46,14.42l.23.7h.73c.09,0,.13.13.06.18l-.59.44.22.7c.03.09-.07.17-.15.11l-.6-.43-.6.43c-.08.06-.18-.02-.15-.11l.22-.7-.59-.44c-.08-.06-.04-.18.06-.18h.73s.23-.7.23-.7c.03-.09.16-.09.19,0Z"/><path class="cls-1" d="m26.46,20.34l.23.7h.73c.09,0,.13.13.06.18l-.59.44.22.7c.03.09-.07.17-.15.11l-.6-.43-.6.43c-.08.06-.18-.02-.15-.11l.22-.7-.59-.44c-.08-.06-.04-.18.06-.18h.73s.23-.7.23-.7c.03-.09.16-.09.19,0Z"/><path class="cls-1" d="m26.46,25.73l.23.7h.73c.09,0,.13.13.06.18l-.59.44.22.7c.03.09-.07.17-.15.11l-.6-.43-.6.43c-.08.06-.18-.02-.15-.11l.22-.7-.59-.44c-.08-.06-.04-.18.06-.18h.73s.23-.7.23-.7c.03-.09.16-.09.19,0Z"/></svg>