<svg width="20" height="20" viewBox="0 0 20 20" fill="none" xmlns="http://www.w3.org/2000/svg">
<path fill-rule="evenodd" clip-rule="evenodd" d="M18.0891 10.5988L14.7558 13.9322C14.4333 14.2438 13.9208 14.2438 13.5983 13.9322C13.2675 13.6122 13.2583 13.0847 13.5775 12.7538L16.3216 10.0097L13.5775 7.26551C13.5752 7.26328 13.5729 7.26106 13.5706 7.25884C13.566 7.2544 13.5613 7.24995 13.5575 7.24551C13.2375 6.91384 13.2466 6.38634 13.5775 6.06717C13.9083 5.74717 14.4358 5.75551 14.7558 6.08717L18.0891 9.42051C18.415 9.74634 18.415 10.273 18.0891 10.5988ZM10.0002 1.66602C10.4604 1.66602 10.8335 2.03911 10.8335 2.49935L10.8335 17.4994C10.8335 17.9596 10.4604 18.3327 10.0002 18.3327C9.53992 18.3327 9.16683 17.9596 9.16683 17.4994L9.16683 2.49935C9.16683 2.03911 9.53993 1.66602 10.0002 1.66602ZM5.23431 13.9322L1.90098 10.5988C1.57514 10.273 1.57514 9.74634 1.90098 9.42051L5.23431 6.08717C5.55431 5.75551 6.08181 5.74717 6.41264 6.06717C6.74348 6.38634 6.75264 6.91384 6.43264 7.24551C6.42875 7.24995 6.42413 7.25439 6.4195 7.25884L6.41264 7.26551L3.66848 10.0097L6.41264 12.7538C6.73181 13.0847 6.72264 13.6122 6.39181 13.9322C6.06931 14.2438 5.55681 14.2438 5.23431 13.9322Z" fill="#414141"/>
<mask id="mask0_110_12487" style="mask-type:alpha" maskUnits="userSpaceOnUse" x="1" y="1" width="18" height="18">
<path fill-rule="evenodd" clip-rule="evenodd" d="M18.0891 10.5988L14.7558 13.9322C14.4333 14.2438 13.9208 14.2438 13.5983 13.9322C13.2675 13.6122 13.2583 13.0847 13.5775 12.7538L16.3216 10.0097L13.5775 7.26551C13.5752 7.26328 13.5729 7.26106 13.5706 7.25884C13.566 7.2544 13.5613 7.24995 13.5575 7.24551C13.2375 6.91384 13.2466 6.38634 13.5775 6.06717C13.9083 5.74717 14.4358 5.75551 14.7558 6.08717L18.0891 9.42051C18.415 9.74634 18.415 10.273 18.0891 10.5988ZM10.0002 1.66602C10.4604 1.66602 10.8335 2.03911 10.8335 2.49935L10.8335 17.4994C10.8335 17.9596 10.4604 18.3327 10.0002 18.3327C9.53992 18.3327 9.16683 17.9596 9.16683 17.4994L9.16683 2.49935C9.16683 2.03911 9.53993 1.66602 10.0002 1.66602ZM5.23431 13.9322L1.90098 10.5988C1.57514 10.273 1.57514 9.74634 1.90098 9.42051L5.23431 6.08717C5.55431 5.75551 6.08181 5.74717 6.41264 6.06717C6.74348 6.38634 6.75264 6.91384 6.43264 7.24551C6.42875 7.24995 6.42413 7.25439 6.4195 7.25884L6.41264 7.26551L3.66848 10.0097L6.41264 12.7538C6.73181 13.0847 6.72264 13.6122 6.39181 13.9322C6.06931 14.2438 5.55681 14.2438 5.23431 13.9322Z" fill="white"/>
</mask>
<g mask="url(#mask0_110_12487)">
<rect x="20" width="20" height="20" transform="rotate(90 20 0)" fill="white"/>
</g>
</svg>
