<?xml version="1.0" encoding="UTF-8"?><svg id="Livello_1" xmlns="http://www.w3.org/2000/svg" viewBox="0 0 56 56"><defs><style>.cls-1{fill:#c8414b;}.cls-2{fill:#f5f5f5;}.cls-3{fill:#5064aa;}.cls-4{fill:#fab446;}.cls-5{fill:#ffd250;}.cls-6{fill:#ffa0d2;}.cls-7{fill:#ffb441;}</style></defs><rect class="cls-1" y="-.31" width="56" height="56.44"/><rect class="cls-5" y="11.57" width="56" height="32.67"/><path class="cls-1" d="m24.4,27.96l.9-3.68c.08-.34-.2-.66-.58-.66h-.64c-.38,0-.67.32-.58.66l.9,3.68Z"/><rect class="cls-2" x="23.34" y="26.03" width="2.13" height="8.2"/><rect class="cls-4" x="22.8" y="25.06" width="3.19" height=".97"/><rect class="cls-1" x="20.67" y="27.96" width="5.32" height=".97"/><polygon class="cls-1" points="26 31.82 22.8 30.85 22.8 29.89 26 30.85 26 31.82"/><path class="cls-1" d="m8.43,27.96l.9-3.68c.08-.34-.2-.66-.58-.66h-.64c-.38,0-.67.32-.58.66l.9,3.68Z"/><path class="cls-2" d="m12.15,25.06c-.59,0-1.06.43-1.06.97v6.27c0,1.17,1.21,3.38,5.32,3.38s5.32-2.21,5.32-3.38v-6.27c0-.53-.48-.97-1.06-.97h-8.52Z"/><path class="cls-1" d="m16.41,29.89h-5.32v-3.81c0-.56.45-1.01,1.01-1.01h4.31v4.83h0Z"/><path class="cls-1" d="m16.41,29.89h5.32v2.29c0,1.4-1.13,2.53-2.53,2.53h-.26c-1.4,0-2.53-1.13-2.53-2.53v-2.29h0Z"/><path class="cls-4" d="m11.09,29.89h5.32v2.29c0,1.4-1.13,2.53-2.53,2.53h-.26c-1.4,0-2.53-1.13-2.53-2.53,0,0,0-2.29,0-2.29Z"/><path class="cls-1" d="m15.35,34.22v-4.33h-1.06v4.78c.4-.07.75-.23,1.06-.44Z"/><path class="cls-1" d="m13.22,34.66v-4.78h-1.06v4.33c.31.21.67.37,1.06.44Z"/><rect class="cls-7" x="12.15" y="27.96" width="3.19" height=".97"/><rect class="cls-4" x="12.15" y="26.03" width="3.19" height=".97"/><rect class="cls-4" x="12.69" y="26.6" width="2.13" height="1.75"/><rect class="cls-2" x="7.36" y="26.03" width="2.13" height="8.2"/><rect class="cls-4" x="6.83" y="33.75" width="3.19" height=".97"/><rect class="cls-4" x="6.83" y="25.06" width="3.19" height=".97"/><rect class="cls-3" x="6.3" y="34.71" width="4.26" height=".97"/><rect class="cls-4" x="23.34" y="33.75" width="3.19" height=".97"/><rect class="cls-3" x="22.27" y="34.71" width="4.26" height=".97"/><rect class="cls-4" x="13.22" y="24.1" width="6.39" height=".97"/><rect class="cls-7" x="15.88" y="21.2" width="1.06" height="2.9"/><path class="cls-2" d="m15.35,22.65c-.88,0-1.6-.65-1.6-1.45s.72-1.45,1.6-1.45,1.6.65,1.6,1.45c0,.8-.72,1.45-1.6,1.45Zm0-1.93c-.29,0-.53.22-.53.48s.24.48.53.48.53-.22.53-.48-.24-.48-.53-.48Z"/><path class="cls-2" d="m17.48,22.65c-.88,0-1.6-.65-1.6-1.45s.72-1.45,1.6-1.45,1.6.65,1.6,1.45c0,.8-.72,1.45-1.6,1.45Zm0-1.93c-.29,0-.53.22-.53.48s.24.48.53.48.53-.22.53-.48-.24-.48-.53-.48Z"/><path class="cls-2" d="m19.61,23.61c-.88,0-1.6-.65-1.6-1.45s.72-1.45,1.6-1.45,1.6.65,1.6,1.45-.72,1.45-1.6,1.45Zm0-1.93c-.29,0-.53.22-.53.48s.24.48.53.48.53-.22.53-.48-.24-.48-.53-.48Z"/><path class="cls-2" d="m13.22,23.61c-.88,0-1.6-.65-1.6-1.45s.72-1.45,1.6-1.45,1.6.65,1.6,1.45c0,.8-.72,1.45-1.6,1.45Zm0-1.93c-.29,0-.53.22-.53.48s.24.48.53.48.53-.22.53-.48-.24-.48-.53-.48Z"/><path class="cls-4" d="m19.61,31.82v.48c0,.27-.24.48-.53.48s-.53-.22-.53-.48v-.48h1.06m1.06-.97h-3.19v1.45c0,.8.72,1.45,1.6,1.45s1.6-.65,1.6-1.45v-1.45h0Z"/><path class="cls-6" d="m19.13,28.92h-.1c-.56,0-1.01-.45-1.01-1.01v-.87c0-.56.45-1.01,1.01-1.01h.1c.56,0,1.01.45,1.01,1.01v.87c0,.56-.45,1.01-1.01,1.01Z"/><ellipse class="cls-3" cx="16.41" cy="29.89" rx="1.6" ry="1.45"/><rect class="cls-4" x="15.88" y="19.27" width="1.06" height="2.9"/><path class="cls-1" d="m13.22,24.1l-1.06-.97.62-.57c.96-.87,2.27-1.36,3.64-1.36h0c1.36,0,2.67.49,3.64,1.36l.62.57-1.06.97h-6.39Z"/><ellipse class="cls-5" cx="16.41" cy="23.13" rx=".53" ry=".48"/><ellipse class="cls-5" cx="14.28" cy="23.13" rx=".53" ry=".48"/><ellipse class="cls-5" cx="18.54" cy="23.13" rx=".53" ry=".48"/><rect class="cls-1" x="6.83" y="27.96" width="5.32" height=".97"/><polygon class="cls-1" points="6.83 31.82 10.02 30.85 10.02 29.89 6.83 30.85 6.83 31.82"/></svg>