<svg width="38" height="37" viewBox="0 0 38 37" fill="none" xmlns="http://www.w3.org/2000/svg">
<mask id="path-1-outside-1_1839_125185" maskUnits="userSpaceOnUse" x="-0.666992" y="-0.333008" width="39" height="37" fill="black">
<rect fill="white" x="-0.666992" y="-0.333008" width="39" height="37"/>
<path fill-rule="evenodd" clip-rule="evenodd" d="M19.1017 7.93387L7.18837 29.9579H31.015L19.1017 7.93387ZM20.035 5.18187L33.743 30.5152H33.7364C33.8204 30.6699 33.8644 30.8432 33.8644 31.0192C33.867 31.6072 33.3924 32.0872 32.803 32.0899H5.39504C5.21904 32.0885 5.04704 32.0445 4.89104 31.9619C4.3737 31.6805 4.1817 31.0325 4.4617 30.5152L18.1577 5.18187C18.2457 5.04454 18.3604 4.92854 18.4977 4.84187C19.0164 4.5112 19.7044 4.6632 20.035 5.18187ZM17.7684 17.0059C17.7684 16.4899 18.187 16.0725 18.7017 16.0725H19.5017C20.0177 16.0725 20.435 16.4899 20.435 17.0059V21.7152C20.435 22.2312 20.0177 22.6485 19.5017 22.6485H18.7017C18.187 22.6485 17.7684 22.2312 17.7684 21.7152V17.0059ZM17.635 26.3819C17.635 25.6445 18.2324 25.0485 18.9684 25.0485H19.235C19.971 25.0485 20.5684 25.6445 20.5684 26.3819V26.6485C20.5684 27.3845 19.971 27.9819 19.235 27.9819H18.9684C18.2324 27.9819 17.635 27.3845 17.635 26.6485V26.3819Z"/>
</mask>
<path d="M7.18837 29.9579L3.67011 28.0548C2.99962 29.2943 3.03086 30.7952 3.75235 32.0057C4.47384 33.2163 5.77912 33.9579 7.18837 33.9579V29.9579ZM19.1017 7.93387L22.62 6.03075C21.9211 4.73886 20.5705 3.93387 19.1017 3.93387C17.6329 3.93387 16.2823 4.73886 15.5834 6.03075L19.1017 7.93387ZM31.015 29.9579V33.9579C32.4243 33.9579 33.7296 33.2163 34.4511 32.0057C35.1726 30.7952 35.2038 29.2943 34.5333 28.0548L31.015 29.9579ZM33.743 30.5152V34.5152C35.1524 34.5152 36.4577 33.7735 37.1792 32.5628C37.9007 31.3521 37.9317 29.8511 37.261 28.6116L33.743 30.5152ZM20.035 5.18187L23.553 3.27826C23.5076 3.19432 23.4592 3.11204 23.4079 3.03156L20.035 5.18187ZM33.7364 30.5152V26.5152C32.3259 26.5152 31.0197 27.258 30.2986 28.4702C29.5775 29.6824 29.5482 31.1848 30.2213 32.4242L33.7364 30.5152ZM33.8644 31.0192H29.8644C29.8644 31.0252 29.8644 31.0313 29.8644 31.0373L33.8644 31.0192ZM32.803 32.0899V36.0899C32.8091 36.0899 32.8151 36.0899 32.8211 36.0898L32.803 32.0899ZM5.39504 32.0899L5.36474 36.0898C5.37484 36.0898 5.38494 36.0899 5.39504 36.0899V32.0899ZM4.89104 31.9619L2.98007 35.4759C2.99271 35.4827 3.00539 35.4895 3.0181 35.4963L4.89104 31.9619ZM4.4617 30.5152L7.97951 32.4192L7.9804 32.4175L4.4617 30.5152ZM18.1577 5.18187L14.7898 3.02379C14.7364 3.10715 14.6861 3.19246 14.639 3.27955L18.1577 5.18187ZM18.4977 4.84187L20.6324 8.2246C20.6376 8.22132 20.6428 8.21803 20.648 8.21473L18.4977 4.84187ZM10.7066 31.861L22.62 9.83698L15.5834 6.03075L3.67011 28.0548L10.7066 31.861ZM31.015 25.9579H7.18837V33.9579H31.015V25.9579ZM15.5834 9.83698L27.4968 31.861L34.5333 28.0548L22.62 6.03075L15.5834 9.83698ZM37.261 28.6116L23.553 3.27826L16.517 7.08547L30.225 32.4188L37.261 28.6116ZM33.7364 34.5152H33.743V26.5152H33.7364V34.5152ZM37.8644 31.0192C37.8644 30.1768 37.6539 29.3472 37.2514 28.6062L30.2213 32.4242C29.9869 31.9925 29.8644 31.5096 29.8644 31.0192H37.8644ZM32.8211 36.0898C35.6213 36.0772 37.877 33.7965 37.8643 31.0011L29.8644 31.0373C29.8571 29.4179 31.1635 28.0972 32.7849 28.0899L32.8211 36.0898ZM5.39504 36.0899H32.803V28.0899H5.39504V36.0899ZM3.0181 35.4963C3.73363 35.8755 4.53664 36.0835 5.36474 36.0898L5.42534 28.09C5.90143 28.0936 6.36045 28.2136 6.76397 28.4274L3.0181 35.4963ZM0.943902 28.6112C-0.386317 31.069 0.525056 34.1408 2.98007 35.4759L6.802 28.4479C8.22235 29.2203 8.74972 30.9961 7.9795 32.4192L0.943902 28.6112ZM14.639 3.27955L0.943011 28.6129L7.9804 32.4175L21.6764 7.08419L14.639 3.27955ZM16.363 1.45914C15.7073 1.8729 15.1795 2.41568 14.7898 3.02379L21.5256 7.33994C21.3119 7.67339 21.0134 7.98417 20.6324 8.2246L16.363 1.45914ZM23.4079 3.03156C21.8886 0.648542 18.7273 -0.0482335 16.3474 1.46901L20.648 8.21473C19.3055 9.07064 17.5201 8.67786 16.6622 7.33218L23.4079 3.03156ZM18.7017 12.0725C15.9816 12.0725 13.7684 14.277 13.7684 17.0059H21.7684C21.7684 18.7027 20.3925 20.0725 18.7017 20.0725V12.0725ZM19.5017 12.0725H18.7017V20.0725H19.5017V12.0725ZM24.435 17.0059C24.435 14.2807 22.2268 12.0725 19.5017 12.0725V20.0725C17.8086 20.0725 16.435 18.699 16.435 17.0059H24.435ZM24.435 21.7152V17.0059H16.435V21.7152H24.435ZM19.5017 26.6485C22.2269 26.6485 24.435 24.4403 24.435 21.7152H16.435C16.435 20.0221 17.8086 18.6485 19.5017 18.6485V26.6485ZM18.7017 26.6485H19.5017V18.6485H18.7017V26.6485ZM13.7684 21.7152C13.7684 24.4441 15.9816 26.6485 18.7017 26.6485V18.6485C20.3925 18.6485 21.7684 20.0183 21.7684 21.7152H13.7684ZM13.7684 17.0059V21.7152H21.7684V17.0059H13.7684ZM18.9684 21.0485C16.0258 21.0485 13.635 23.4328 13.635 26.3819H21.635C21.635 27.8563 20.4389 29.0485 18.9684 29.0485V21.0485ZM19.235 21.0485H18.9684V29.0485H19.235V21.0485ZM24.5684 26.3819C24.5684 23.4328 22.1776 21.0485 19.235 21.0485V29.0485C17.7645 29.0485 16.5684 27.8563 16.5684 26.3819H24.5684ZM24.5684 26.6485V26.3819H16.5684V26.6485H24.5684ZM19.235 31.9819C22.1802 31.9819 24.5684 29.5937 24.5684 26.6485H16.5684C16.5684 25.1754 17.7619 23.9819 19.235 23.9819V31.9819ZM18.9684 31.9819H19.235V23.9819H18.9684V31.9819ZM13.635 26.6485C13.635 29.5937 16.0232 31.9819 18.9684 31.9819V23.9819C20.4415 23.9819 21.635 25.1754 21.635 26.6485H13.635ZM13.635 26.3819V26.6485H21.635V26.3819H13.635Z" fill="white" mask="url(#path-1-outside-1_1839_125185)"/>
<mask id="mask0_1839_125185" style="mask-type:luminance" maskUnits="userSpaceOnUse" x="4" y="4" width="30" height="29">
<path fill-rule="evenodd" clip-rule="evenodd" d="M19.1017 7.93387L7.18837 29.9579H31.015L19.1017 7.93387ZM20.035 5.18187L33.743 30.5152H33.7364C33.8204 30.6699 33.8644 30.8432 33.8644 31.0192C33.867 31.6072 33.3924 32.0872 32.803 32.0899H5.39504C5.21904 32.0885 5.04704 32.0445 4.89104 31.9619C4.3737 31.6805 4.1817 31.0325 4.4617 30.5152L18.1577 5.18187C18.2457 5.04454 18.3604 4.92854 18.4977 4.84187C19.0164 4.5112 19.7044 4.6632 20.035 5.18187ZM17.7684 17.0059C17.7684 16.4899 18.187 16.0725 18.7017 16.0725H19.5017C20.0177 16.0725 20.435 16.4899 20.435 17.0059V21.7152C20.435 22.2312 20.0177 22.6485 19.5017 22.6485H18.7017C18.187 22.6485 17.7684 22.2312 17.7684 21.7152V17.0059ZM17.635 26.3819C17.635 25.6445 18.2324 25.0485 18.9684 25.0485H19.235C19.971 25.0485 20.5684 25.6445 20.5684 26.3819V26.6485C20.5684 27.3845 19.971 27.9819 19.235 27.9819H18.9684C18.2324 27.9819 17.635 27.3845 17.635 26.6485V26.3819Z" fill="white"/>
</mask>
<g mask="url(#mask0_1839_125185)">
<rect x="3" y="2" width="32" height="32" fill="#DC3149"/>
</g>
</svg>
