<svg width="21" height="21" viewBox="0 0 21 21" fill="none" xmlns="http://www.w3.org/2000/svg">
<path fill-rule="evenodd" clip-rule="evenodd" d="M7.53206 3.5957V6.9557H4.17206V3.5957H7.53206ZM12.5321 6.9557V3.5957H9.17206V6.9557H12.5321ZM17.5321 6.9557V3.5957H14.1721V6.9557H17.5321ZM17.5321 11.9557V8.5957H14.1721V11.9557H17.5321ZM12.5321 8.5957V11.9557H9.17206V8.5957H12.5321ZM7.53206 11.9557V8.5957H4.17206V11.9557H7.53206ZM17.5321 13.5957V16.9557H14.1721V13.5957H17.5321ZM7.53206 16.9557V13.5957H4.17206V16.9557H7.53206ZM12.5321 13.5957V16.9557H9.17206V13.5957H12.5321Z" fill="white"/>
<mask id="mask0_202_48723" style="mask-type:luminance" maskUnits="userSpaceOnUse" x="4" y="3" width="14" height="14">
<path fill-rule="evenodd" clip-rule="evenodd" d="M7.53206 3.5957V6.9557H4.17206V3.5957H7.53206ZM12.5321 6.9557V3.5957H9.17206V6.9557H12.5321ZM17.5321 6.9557V3.5957H14.1721V6.9557H17.5321ZM17.5321 11.9557V8.5957H14.1721V11.9557H17.5321ZM12.5321 8.5957V11.9557H9.17206V8.5957H12.5321ZM7.53206 11.9557V8.5957H4.17206V11.9557H7.53206ZM17.5321 13.5957V16.9557H14.1721V13.5957H17.5321ZM7.53206 16.9557V13.5957H4.17206V16.9557H7.53206ZM12.5321 13.5957V16.9557H9.17206V13.5957H12.5321Z" fill="white"/>
</mask>
<g mask="url(#mask0_202_48723)">
<rect x="0.852051" y="0.609375" width="20" height="20" fill="white"/>
</g>
</svg>
