<svg width="21" height="21" viewBox="0 0 21 21" fill="none" xmlns="http://www.w3.org/2000/svg">
<mask id="mask0_214_31380" style="mask-type:luminance" maskUnits="userSpaceOnUse" x="2" y="3" width="17" height="16">
<path fill-rule="evenodd" clip-rule="evenodd" d="M6.23156 3.47443C6.15406 3.39693 6.06156 3.33526 5.95989 3.29359C5.75573 3.20943 5.52739 3.20943 5.32323 3.29359C5.22156 3.33526 5.12906 3.39693 5.05156 3.47443L2.55156 5.97443C2.22073 6.29443 2.21156 6.82193 2.53239 7.15276C2.85156 7.48359 3.37989 7.49276 3.71073 7.17193C3.71517 7.16804 3.71961 7.16341 3.72406 7.15878L3.73073 7.15193L4.80823 6.07443V17.3969C4.80823 17.8561 5.18156 18.2303 5.64156 18.2303C6.10156 18.2303 6.47489 17.8561 6.47489 17.3969V6.07443L7.55239 7.15193C7.88323 7.47193 8.41073 7.46276 8.73073 7.13193C9.04239 6.80859 9.04239 6.29693 8.73073 5.97359L6.23156 3.47443ZM13.1416 14.2294H11.4749C11.1066 14.2294 10.8082 14.5278 10.8082 14.8969C10.8082 15.2644 11.1066 15.5628 11.4749 15.5628H13.1416C13.5091 15.5628 13.8082 15.2644 13.8082 14.8969C13.8082 14.5278 13.5091 14.2294 13.1416 14.2294ZM11.4749 11.4519H14.8082C15.1757 11.4519 15.4749 11.7503 15.4749 12.1194C15.4749 12.4869 15.1757 12.7853 14.8082 12.7853H11.4749C11.1066 12.7853 10.8082 12.4869 10.8082 12.1194C10.8082 11.7503 11.1066 11.4519 11.4749 11.4519ZM16.4749 8.67443H11.4749C11.1066 8.67443 10.8082 8.97276 10.8082 9.34109C10.8082 9.70943 11.1066 10.0078 11.4749 10.0078H16.4749C16.8424 10.0078 17.1416 9.70943 17.1416 9.34109C17.1416 8.97276 16.8424 8.67443 16.4749 8.67443ZM11.4749 5.89609H18.1416H18.1424C18.5099 5.89609 18.8091 6.19526 18.8091 6.56359C18.8082 6.93109 18.5091 7.22943 18.1416 7.22943H11.4749C11.1066 7.22943 10.8074 6.93026 10.8082 6.56276C10.8082 6.19443 11.1066 5.89609 11.4749 5.89609Z" fill="white"/>
</mask>
<g mask="url(#mask0_214_31380)">
<rect x="0.630859" y="0.730469" width="20" height="20" fill="#3C3C3C"/>
</g>
</svg>
