<svg width="49" height="121" viewBox="0 0 49 121" fill="none" xmlns="http://www.w3.org/2000/svg">
<line y1="-0.25" x2="707.99" y2="-0.25" transform="matrix(0.741536 -0.670913 0.741536 0.670913 0 475)" stroke="white" stroke-width="0.5"/>
<line y1="-0.25" x2="696.19" y2="-0.25" transform="matrix(0.741536 -0.670913 0.741536 0.670913 8.75 475)" stroke="white" stroke-width="0.5"/>
<line y1="-0.25" x2="684.391" y2="-0.25" transform="matrix(0.741536 -0.670913 0.741536 0.670913 17.5 475)" stroke="white" stroke-width="0.5"/>
<line y1="-0.25" x2="672.591" y2="-0.25" transform="matrix(0.741536 -0.670913 0.741536 0.670913 26.25 475)" stroke="white" stroke-width="0.5"/>
<line y1="-0.25" x2="660.791" y2="-0.25" transform="matrix(0.741536 -0.670913 0.741536 0.670913 35 475)" stroke="white" stroke-width="0.5"/>
<line y1="-0.25" x2="648.991" y2="-0.25" transform="matrix(0.741536 -0.670913 0.741536 0.670913 43.75 475)" stroke="white" stroke-width="0.5"/>
<line y1="-0.25" x2="696.19" y2="-0.25" transform="matrix(0.741536 -0.670913 0.741536 0.670913 0 467.084)" stroke="white" stroke-width="0.5"/>
<line y1="-0.25" x2="684.391" y2="-0.25" transform="matrix(0.741536 -0.670913 0.741536 0.670913 0 459.166)" stroke="white" stroke-width="0.5"/>
<line y1="-0.25" x2="672.591" y2="-0.25" transform="matrix(0.741536 -0.670913 0.741536 0.670913 0 451.25)" stroke="white" stroke-width="0.5"/>
<line y1="-0.25" x2="660.791" y2="-0.25" transform="matrix(0.741536 -0.670913 0.741536 0.670913 0 443.334)" stroke="white" stroke-width="0.5"/>
<line y1="-0.25" x2="648.991" y2="-0.25" transform="matrix(0.741536 -0.670913 0.741536 0.670913 0 435.416)" stroke="white" stroke-width="0.5"/>
<line y1="-0.25" x2="637.191" y2="-0.25" transform="matrix(0.741536 -0.670913 0.741536 0.670913 0 427.5)" stroke="white" stroke-width="0.5"/>
<line y1="-0.25" x2="625.391" y2="-0.25" transform="matrix(0.741536 -0.670913 0.741536 0.670913 0 419.584)" stroke="white" stroke-width="0.5"/>
<line y1="-0.25" x2="613.591" y2="-0.25" transform="matrix(0.741536 -0.670913 0.741536 0.670913 0 411.666)" stroke="white" stroke-width="0.5"/>
<line y1="-0.25" x2="601.792" y2="-0.25" transform="matrix(0.741536 -0.670913 0.741536 0.670913 0 403.75)" stroke="white" stroke-width="0.5"/>
<line y1="-0.25" x2="589.992" y2="-0.25" transform="matrix(0.741536 -0.670913 0.741536 0.670913 0 395.834)" stroke="white" stroke-width="0.5"/>
<line y1="-0.25" x2="578.192" y2="-0.25" transform="matrix(0.741536 -0.670913 0.741536 0.670913 0 387.916)" stroke="white" stroke-width="0.5"/>
<line y1="-0.25" x2="566.392" y2="-0.25" transform="matrix(0.741536 -0.670913 0.741536 0.670913 0 380)" stroke="white" stroke-width="0.5"/>
<line y1="-0.25" x2="554.592" y2="-0.25" transform="matrix(0.741536 -0.670913 0.741536 0.670913 0 372.084)" stroke="white" stroke-width="0.5"/>
<line y1="-0.25" x2="542.792" y2="-0.25" transform="matrix(0.741536 -0.670913 0.741536 0.670913 0 364.166)" stroke="white" stroke-width="0.5"/>
<line y1="-0.25" x2="530.993" y2="-0.25" transform="matrix(0.741536 -0.670913 0.741536 0.670913 0 356.25)" stroke="white" stroke-width="0.5"/>
<line y1="-0.25" x2="519.193" y2="-0.25" transform="matrix(0.741536 -0.670913 0.741536 0.670913 0 348.334)" stroke="white" stroke-width="0.5"/>
<line y1="-0.25" x2="507.393" y2="-0.25" transform="matrix(0.741536 -0.670913 0.741536 0.670913 0 340.416)" stroke="white" stroke-width="0.5"/>
<line y1="-0.25" x2="495.593" y2="-0.25" transform="matrix(0.741536 -0.670913 0.741536 0.670913 0 332.5)" stroke="white" stroke-width="0.5"/>
<line y1="-0.25" x2="483.793" y2="-0.25" transform="matrix(0.741536 -0.670913 0.741536 0.670913 0 324.584)" stroke="white" stroke-width="0.5"/>
<line y1="-0.25" x2="471.993" y2="-0.25" transform="matrix(0.741536 -0.670913 0.741536 0.670913 0 316.666)" stroke="white" stroke-width="0.5"/>
<line y1="-0.25" x2="460.194" y2="-0.25" transform="matrix(0.741536 -0.670913 0.741536 0.670913 0 308.75)" stroke="white" stroke-width="0.5"/>
<line y1="-0.25" x2="448.394" y2="-0.25" transform="matrix(0.741536 -0.670913 0.741536 0.670913 0 300.834)" stroke="white" stroke-width="0.5"/>
<line y1="-0.25" x2="436.594" y2="-0.25" transform="matrix(0.741536 -0.670913 0.741536 0.670913 0 292.916)" stroke="white" stroke-width="0.5"/>
<line y1="-0.25" x2="424.794" y2="-0.25" transform="matrix(0.741536 -0.670913 0.741536 0.670913 0 285)" stroke="white" stroke-width="0.5"/>
<line y1="-0.25" x2="412.994" y2="-0.25" transform="matrix(0.741536 -0.670913 0.741536 0.670913 0 277.084)" stroke="white" stroke-width="0.5"/>
<line y1="-0.25" x2="401.194" y2="-0.25" transform="matrix(0.741536 -0.670913 0.741536 0.670913 0 269.166)" stroke="white" stroke-width="0.5"/>
<line y1="-0.25" x2="389.395" y2="-0.25" transform="matrix(0.741536 -0.670913 0.741536 0.670913 0 261.25)" stroke="white" stroke-width="0.5"/>
<line y1="-0.25" x2="377.595" y2="-0.25" transform="matrix(0.741536 -0.670913 0.741536 0.670913 0 253.334)" stroke="white" stroke-width="0.5"/>
<line y1="-0.25" x2="365.795" y2="-0.25" transform="matrix(0.741536 -0.670913 0.741536 0.670913 0 245.416)" stroke="white" stroke-width="0.5"/>
<line y1="-0.25" x2="353.995" y2="-0.25" transform="matrix(0.741536 -0.670913 0.741536 0.670913 0 237.5)" stroke="white" stroke-width="0.5"/>
<line y1="-0.25" x2="342.195" y2="-0.25" transform="matrix(0.741536 -0.670913 0.741536 0.670913 0 229.584)" stroke="white" stroke-width="0.5"/>
<line y1="-0.25" x2="330.395" y2="-0.25" transform="matrix(0.741536 -0.670913 0.741536 0.670913 0 221.666)" stroke="white" stroke-width="0.5"/>
<line y1="-0.25" x2="318.596" y2="-0.25" transform="matrix(0.741536 -0.670913 0.741536 0.670913 0 213.75)" stroke="white" stroke-width="0.5"/>
<line y1="-0.25" x2="306.796" y2="-0.25" transform="matrix(0.741536 -0.670913 0.741536 0.670913 0 205.834)" stroke="white" stroke-width="0.5"/>
<line y1="-0.25" x2="294.996" y2="-0.25" transform="matrix(0.741536 -0.670913 0.741536 0.670913 0 197.916)" stroke="white" stroke-width="0.5"/>
<line y1="-0.25" x2="283.196" y2="-0.25" transform="matrix(0.741536 -0.670913 0.741536 0.670913 0 190)" stroke="white" stroke-width="0.5"/>
<line y1="-0.25" x2="271.396" y2="-0.25" transform="matrix(0.741536 -0.670913 0.741536 0.670913 0 182.084)" stroke="white" stroke-width="0.5"/>
<line y1="-0.25" x2="259.596" y2="-0.25" transform="matrix(0.741536 -0.670913 0.741536 0.670913 0 174.166)" stroke="white" stroke-width="0.5"/>
<line y1="-0.25" x2="247.797" y2="-0.25" transform="matrix(0.741536 -0.670913 0.741536 0.670913 0 166.25)" stroke="white" stroke-width="0.5"/>
<line y1="-0.25" x2="235.997" y2="-0.25" transform="matrix(0.741536 -0.670913 0.741536 0.670913 0 158.334)" stroke="white" stroke-width="0.5"/>
<line y1="-0.25" x2="224.197" y2="-0.25" transform="matrix(0.741536 -0.670913 0.741536 0.670913 0 150.416)" stroke="white" stroke-width="0.5"/>
<line y1="-0.25" x2="212.397" y2="-0.25" transform="matrix(0.741536 -0.670913 0.741536 0.670913 0 142.5)" stroke="white" stroke-width="0.5"/>
<line y1="-0.25" x2="200.597" y2="-0.25" transform="matrix(0.741536 -0.670913 0.741536 0.670913 0 134.584)" stroke="white" stroke-width="0.5"/>
<line y1="-0.25" x2="188.797" y2="-0.25" transform="matrix(0.741536 -0.670913 0.741536 0.670913 0 126.666)" stroke="white" stroke-width="0.5"/>
<line y1="-0.25" x2="176.998" y2="-0.25" transform="matrix(0.741536 -0.670913 0.741536 0.670913 0 118.75)" stroke="white" stroke-width="0.5"/>
<line y1="-0.25" x2="165.198" y2="-0.25" transform="matrix(0.741536 -0.670913 0.741536 0.670913 0 110.834)" stroke="white" stroke-width="0.5"/>
<line y1="-0.25" x2="153.398" y2="-0.25" transform="matrix(0.741536 -0.670913 0.741536 0.670913 0 102.916)" stroke="white" stroke-width="0.5"/>
<line y1="-0.25" x2="141.598" y2="-0.25" transform="matrix(0.741536 -0.670913 0.741536 0.670913 0 95)" stroke="white" stroke-width="0.5"/>
<line y1="-0.25" x2="129.798" y2="-0.25" transform="matrix(0.741536 -0.670913 0.741536 0.670913 0 87.084)" stroke="white" stroke-width="0.5"/>
<line y1="-0.25" x2="117.998" y2="-0.25" transform="matrix(0.741536 -0.670913 0.741536 0.670913 0 79.166)" stroke="white" stroke-width="0.5"/>
<line y1="-0.25" x2="106.199" y2="-0.25" transform="matrix(0.741536 -0.670913 0.741536 0.670913 0 71.25)" stroke="white" stroke-width="0.5"/>
<line y1="-0.25" x2="94.3987" y2="-0.25" transform="matrix(0.741536 -0.670913 0.741536 0.670913 0 63.334)" stroke="white" stroke-width="0.5"/>
<line y1="-0.25" x2="82.5988" y2="-0.25" transform="matrix(0.741536 -0.670913 0.741536 0.670913 0 55.416)" stroke="white" stroke-width="0.5"/>
<line y1="-0.25" x2="70.799" y2="-0.25" transform="matrix(0.741536 -0.670913 0.741536 0.670913 0 47.5)" stroke="white" stroke-width="0.5"/>
<line y1="-0.25" x2="58.9992" y2="-0.25" transform="matrix(0.741536 -0.670913 0.741536 0.670913 0 39.584)" stroke="white" stroke-width="0.5"/>
<line y1="-0.25" x2="47.1993" y2="-0.25" transform="matrix(0.741536 -0.670913 0.741536 0.670913 0 31.666)" stroke="white" stroke-width="0.5"/>
<line y1="-0.25" x2="35.3995" y2="-0.25" transform="matrix(0.741536 -0.670913 0.741536 0.670913 0 23.75)" stroke="white" stroke-width="0.5"/>
<line y1="-0.25" x2="23.5997" y2="-0.25" transform="matrix(0.741536 -0.670913 0.741536 0.670913 0 15.834)" stroke="white" stroke-width="0.5"/>
<line y1="-0.25" x2="11.7998" y2="-0.25" transform="matrix(0.741536 -0.670913 0.741536 0.670913 0 7.91602)" stroke="white" stroke-width="0.5"/>
</svg>
