<svg width="187" height="200" viewBox="0 0 187 200" fill="none" xmlns="http://www.w3.org/2000/svg">
<mask id="mask0_196_96201" style="mask-type:alpha" maskUnits="userSpaceOnUse" x="0" y="0" width="187" height="200">
<rect width="187" height="200" fill="white"/>
</mask>
<g mask="url(#mask0_196_96201)">
<line x1="-0.176777" y1="599.823" x2="599.823" y2="-0.176766" stroke="#007AB3" stroke-width="0.5"/>
<line x1="9.82322" y1="599.823" x2="599.823" y2="9.82324" stroke="#007AB3" stroke-width="0.5"/>
<line x1="19.8232" y1="599.823" x2="599.823" y2="19.8232" stroke="#007AB3" stroke-width="0.5"/>
<line x1="29.8232" y1="599.823" x2="599.823" y2="29.8232" stroke="#007AB3" stroke-width="0.5"/>
<line x1="39.8232" y1="599.823" x2="599.823" y2="39.8232" stroke="#007AB3" stroke-width="0.5"/>
<line x1="49.8232" y1="599.823" x2="599.823" y2="49.8232" stroke="#007AB3" stroke-width="0.5"/>
<line x1="59.8232" y1="599.823" x2="599.823" y2="59.8232" stroke="#007AB3" stroke-width="0.5"/>
<line x1="69.8232" y1="599.823" x2="599.823" y2="69.8232" stroke="#007AB3" stroke-width="0.5"/>
<line x1="79.8232" y1="599.823" x2="599.823" y2="79.8232" stroke="#007AB3" stroke-width="0.5"/>
<line x1="89.8232" y1="599.823" x2="599.823" y2="89.8232" stroke="#007AB3" stroke-width="0.5"/>
<line x1="99.8232" y1="599.823" x2="599.823" y2="99.8232" stroke="#007AB3" stroke-width="0.5"/>
<line x1="109.823" y1="599.823" x2="599.823" y2="109.823" stroke="#007AB3" stroke-width="0.5"/>
<line x1="119.823" y1="599.823" x2="599.823" y2="119.823" stroke="#007AB3" stroke-width="0.5"/>
<line x1="129.823" y1="599.823" x2="599.823" y2="129.823" stroke="#007AB3" stroke-width="0.5"/>
<line x1="139.823" y1="599.823" x2="599.823" y2="139.823" stroke="#007AB3" stroke-width="0.5"/>
<line x1="149.823" y1="599.823" x2="599.823" y2="149.823" stroke="#007AB3" stroke-width="0.5"/>
<line x1="159.823" y1="599.823" x2="599.823" y2="159.823" stroke="#007AB3" stroke-width="0.5"/>
<line x1="169.823" y1="599.823" x2="599.823" y2="169.823" stroke="#007AB3" stroke-width="0.5"/>
<line x1="179.823" y1="599.823" x2="599.823" y2="179.823" stroke="#007AB3" stroke-width="0.5"/>
<line x1="-0.176777" y1="589.823" x2="589.823" y2="-0.176756" stroke="#007AB3" stroke-width="0.5"/>
<line x1="-0.176777" y1="579.823" x2="579.823" y2="-0.176788" stroke="#007AB3" stroke-width="0.5"/>
<line x1="-0.176777" y1="569.823" x2="569.823" y2="-0.176778" stroke="#007AB3" stroke-width="0.5"/>
<line x1="-0.176777" y1="559.823" x2="559.823" y2="-0.176767" stroke="#007AB3" stroke-width="0.5"/>
<line x1="-0.176777" y1="549.823" x2="549.823" y2="-0.176756" stroke="#007AB3" stroke-width="0.5"/>
<line x1="-0.176777" y1="539.823" x2="539.823" y2="-0.176789" stroke="#007AB3" stroke-width="0.5"/>
<line x1="-0.176777" y1="529.823" x2="529.823" y2="-0.176778" stroke="#007AB3" stroke-width="0.5"/>
<line x1="-0.176777" y1="519.823" x2="519.823" y2="-0.176768" stroke="#007AB3" stroke-width="0.5"/>
<line x1="-0.176777" y1="509.823" x2="509.823" y2="-0.176757" stroke="#007AB3" stroke-width="0.5"/>
<line x1="-0.176777" y1="499.823" x2="499.823" y2="-0.17679" stroke="#007AB3" stroke-width="0.5"/>
<line x1="-0.176777" y1="489.823" x2="489.823" y2="-0.176779" stroke="#007AB3" stroke-width="0.5"/>
<line x1="-0.176777" y1="479.823" x2="479.823" y2="-0.176768" stroke="#007AB3" stroke-width="0.5"/>
<line x1="-0.176777" y1="469.823" x2="469.823" y2="-0.176758" stroke="#007AB3" stroke-width="0.5"/>
<line x1="-0.176777" y1="459.823" x2="459.823" y2="-0.17679" stroke="#007AB3" stroke-width="0.5"/>
<line x1="-0.176777" y1="449.823" x2="449.823" y2="-0.17678" stroke="#007AB3" stroke-width="0.5"/>
<line x1="-0.176777" y1="439.823" x2="439.823" y2="-0.176769" stroke="#007AB3" stroke-width="0.5"/>
<line x1="-0.176777" y1="429.823" x2="429.823" y2="-0.176758" stroke="#007AB3" stroke-width="0.5"/>
<line x1="-0.176777" y1="419.823" x2="419.823" y2="-0.176791" stroke="#007AB3" stroke-width="0.5"/>
<line x1="-0.176777" y1="409.823" x2="409.823" y2="-0.17678" stroke="#007AB3" stroke-width="0.5"/>
<line x1="-0.176777" y1="399.823" x2="399.823" y2="-0.17677" stroke="#007AB3" stroke-width="0.5"/>
<line x1="-0.176777" y1="389.823" x2="389.823" y2="-0.176759" stroke="#007AB3" stroke-width="0.5"/>
<line x1="-0.176777" y1="379.823" x2="379.823" y2="-0.176792" stroke="#007AB3" stroke-width="0.5"/>
<line x1="-0.176777" y1="369.823" x2="369.823" y2="-0.176781" stroke="#007AB3" stroke-width="0.5"/>
<line x1="-0.176777" y1="359.823" x2="359.823" y2="-0.17677" stroke="#007AB3" stroke-width="0.5"/>
<line x1="-0.176777" y1="349.823" x2="349.823" y2="-0.176781" stroke="#007AB3" stroke-width="0.5"/>
<line x1="-0.176777" y1="339.823" x2="339.823" y2="-0.176771" stroke="#007AB3" stroke-width="0.5"/>
<line x1="-0.176777" y1="329.823" x2="329.823" y2="-0.176782" stroke="#007AB3" stroke-width="0.5"/>
<line x1="-0.176777" y1="319.823" x2="319.823" y2="-0.176771" stroke="#007AB3" stroke-width="0.5"/>
<line x1="-0.176777" y1="309.823" x2="309.823" y2="-0.176782" stroke="#007AB3" stroke-width="0.5"/>
<line x1="-0.176777" y1="299.823" x2="299.823" y2="-0.176771" stroke="#007AB3" stroke-width="0.5"/>
<line x1="-0.176777" y1="289.823" x2="289.823" y2="-0.176782" stroke="#007AB3" stroke-width="0.5"/>
<line x1="-0.176777" y1="279.823" x2="279.823" y2="-0.176772" stroke="#007AB3" stroke-width="0.5"/>
<line x1="-0.176777" y1="269.823" x2="269.823" y2="-0.176783" stroke="#007AB3" stroke-width="0.5"/>
<line x1="-0.176777" y1="259.823" x2="259.823" y2="-0.176772" stroke="#007AB3" stroke-width="0.5"/>
<line x1="-0.176777" y1="249.823" x2="249.823" y2="-0.176783" stroke="#007AB3" stroke-width="0.5"/>
<line x1="-0.176777" y1="239.823" x2="239.823" y2="-0.176773" stroke="#007AB3" stroke-width="0.5"/>
<line x1="-0.176777" y1="229.823" x2="229.823" y2="-0.176783" stroke="#007AB3" stroke-width="0.5"/>
<line x1="-0.176777" y1="219.823" x2="219.823" y2="-0.176773" stroke="#007AB3" stroke-width="0.5"/>
<line x1="-0.176777" y1="209.823" x2="209.823" y2="-0.176784" stroke="#007AB3" stroke-width="0.5"/>
<line x1="-0.176777" y1="199.823" x2="199.823" y2="-0.176773" stroke="#007AB3" stroke-width="0.5"/>
<line x1="-0.176777" y1="189.823" x2="189.823" y2="-0.176784" stroke="#007AB3" stroke-width="0.5"/>
<line x1="-0.176777" y1="179.823" x2="179.823" y2="-0.176774" stroke="#007AB3" stroke-width="0.5"/>
<line x1="-0.176777" y1="169.823" x2="169.823" y2="-0.176774" stroke="#007AB3" stroke-width="0.5"/>
<line x1="-0.176777" y1="159.823" x2="159.823" y2="-0.176774" stroke="#007AB3" stroke-width="0.5"/>
<line x1="-0.176777" y1="149.823" x2="149.823" y2="-0.176774" stroke="#007AB3" stroke-width="0.5"/>
<line x1="-0.176777" y1="139.823" x2="139.823" y2="-0.176774" stroke="#007AB3" stroke-width="0.5"/>
<line x1="-0.176777" y1="129.823" x2="129.823" y2="-0.176774" stroke="#007AB3" stroke-width="0.5"/>
<line x1="-0.176777" y1="119.823" x2="119.823" y2="-0.176775" stroke="#007AB3" stroke-width="0.5"/>
<line x1="-0.176777" y1="109.823" x2="109.823" y2="-0.176775" stroke="#007AB3" stroke-width="0.5"/>
<line x1="-0.176777" y1="99.8232" x2="99.8232" y2="-0.176775" stroke="#007AB3" stroke-width="0.5"/>
<line x1="-0.176777" y1="89.8232" x2="89.8232" y2="-0.176775" stroke="#007AB3" stroke-width="0.5"/>
<line x1="-0.176777" y1="79.8232" x2="79.8232" y2="-0.176775" stroke="#007AB3" stroke-width="0.5"/>
<line x1="-0.176777" y1="69.8232" x2="69.8232" y2="-0.176775" stroke="#007AB3" stroke-width="0.5"/>
<line x1="-0.176777" y1="59.8232" x2="59.8232" y2="-0.176776" stroke="#007AB3" stroke-width="0.5"/>
<line x1="-0.176777" y1="49.8232" x2="49.8232" y2="-0.176776" stroke="#007AB3" stroke-width="0.5"/>
<line x1="-0.176777" y1="39.8232" x2="39.8232" y2="-0.176776" stroke="#007AB3" stroke-width="0.5"/>
<line x1="-0.176777" y1="29.8232" x2="29.8232" y2="-0.176776" stroke="#007AB3" stroke-width="0.5"/>
<line x1="-0.176777" y1="19.8232" x2="19.8232" y2="-0.176776" stroke="#007AB3" stroke-width="0.5"/>
<line x1="-0.176777" y1="9.82322" x2="9.82322" y2="-0.176777" stroke="#007AB3" stroke-width="0.5"/>
</g>
</svg>
