<svg width="21" height="21" viewBox="0 0 21 21" fill="none" xmlns="http://www.w3.org/2000/svg">
<path fill-rule="evenodd" clip-rule="evenodd" d="M6.81093 6.79359V3.43359H3.45093V6.79359H6.81093ZM11.8109 3.43359V6.79359H8.45093V3.43359H11.8109ZM16.8109 3.43359V6.79359H13.4509V3.43359H16.8109ZM11.8109 8.43359V11.7936H8.45093V8.43359H11.8109ZM6.81093 11.7936V8.43359H3.45093V11.7936H6.81093ZM6.81093 13.4336V16.7936H3.45093V13.4336H6.81093Z" fill="#007AB3"/>
<mask id="mask0_15_78653" style="mask-type:luminance" maskUnits="userSpaceOnUse" x="3" y="3" width="14" height="14">
<path fill-rule="evenodd" clip-rule="evenodd" d="M6.81093 6.79359V3.43359H3.45093V6.79359H6.81093ZM11.8109 3.43359V6.79359H8.45093V3.43359H11.8109ZM16.8109 3.43359V6.79359H13.4509V3.43359H16.8109ZM11.8109 8.43359V11.7936H8.45093V8.43359H11.8109ZM6.81093 11.7936V8.43359H3.45093V11.7936H6.81093ZM6.81093 13.4336V16.7936H3.45093V13.4336H6.81093Z" fill="white"/>
</mask>
<g mask="url(#mask0_15_78653)">
<rect x="0.130859" y="0.445312" width="20" height="20" fill="#007AB3"/>
</g>
</svg>
