<svg width="21" height="21" viewBox="0 0 21 21" fill="none" xmlns="http://www.w3.org/2000/svg">
<path d="M18.333 3.33333L18.2322 2.27539L17.2246 2.61124C15.4979 3.2112 13.6539 3.3953 11.8426 3.14861C9.9393 2.85323 7.99116 3.11571 6.23388 3.90427C5.3023 4.30095 4.48473 4.92435 3.85561 5.71772C3.22649 6.51108 2.80581 7.4492 2.63187 8.44668C2.40633 9.73525 2.51916 11.0603 2.95933 12.2922C3.24275 11.6525 3.57394 11.035 3.95009 10.445C4.80332 9.18961 5.98559 8.19326 7.36739 7.56506C8.69857 6.95728 10.1536 6.66972 11.6159 6.72543C10.2238 6.93828 8.89132 7.43868 7.70324 8.19479C7.13017 8.55486 6.60536 8.98656 6.14153 9.47942C5.69792 9.97205 5.30678 10.5095 4.97444 11.0831C4.3502 12.2821 3.90602 13.5666 3.65622 14.895C3.38696 16.2278 3.24081 17.5825 3.21961 18.9421H4.89887C4.9778 17.7228 5.14334 16.5106 5.39425 15.3149C6.55919 15.9439 7.86558 16.2647 9.18938 16.2468C10.424 16.246 11.646 15.9976 12.783 15.5164C19.1726 12.7876 18.333 3.71116 18.333 3.33333Z" fill="white"/>
</svg>
