<svg width="33" height="33" viewBox="0 0 33 33" fill="none" xmlns="http://www.w3.org/2000/svg">
<mask id="mask0_1856_225513" style="mask-type:luminance" maskUnits="userSpaceOnUse" x="1" y="1" width="30" height="31">
<path fill-rule="evenodd" clip-rule="evenodd" d="M15.9974 8.44401H16.2641C17.0001 8.44401 17.5974 9.04134 17.5974 9.77734V10.044C17.5974 10.78 17.0001 11.3773 16.2641 11.3773H15.9974C15.2614 11.3773 14.6641 10.78 14.6641 10.044V9.77734C14.6641 9.04134 15.2614 8.44401 15.9974 8.44401ZM15.7307 13.7773H16.5307C17.0467 13.7773 17.4641 14.1947 17.4641 14.7107V23.5107C17.4641 24.0267 17.0467 24.444 16.5307 24.444H15.7307C15.2161 24.444 14.7974 24.0267 14.7974 23.5107V14.7107C14.7974 14.1947 15.2161 13.7773 15.7307 13.7773ZM16.1307 28.9773C9.2094 28.9773 3.5974 23.3667 3.5974 16.444C3.5974 9.52268 9.2094 3.91068 16.1307 3.91068C23.0534 3.91068 28.6641 9.52268 28.6641 16.444C28.6561 23.3627 23.0494 28.9693 16.1307 28.9773ZM16.1307 1.77734C8.03073 1.77734 1.46407 8.34401 1.46407 16.444C1.46407 24.5453 8.03073 31.1107 16.1307 31.1107C24.2307 31.1107 30.7974 24.5453 30.7974 16.444C30.7974 8.34401 24.2307 1.77734 16.1307 1.77734Z" fill="white"/>
</mask>
<g mask="url(#mask0_1856_225513)">
<rect x="0.130859" y="0.445312" width="32" height="32" fill="#007AB3"/>
</g>
</svg>
